<svg width="560" height="360" viewBox="0 0 560 360" fill="none" xmlns="http://www.w3.org/2000/svg">
  <defs>
    <linearGradient id="autoNodes" x1="96" y1="82" x2="470" y2="278" gradientUnits="userSpaceOnUse">
      <stop offset="0" stop-color="#2563EB"/>
      <stop offset="1" stop-color="#0EA5E9"/>
    </linearGradient>
    <linearGradient id="autoBackground" x1="280" y1="40" x2="280" y2="320" gradientUnits="userSpaceOnUse">
      <stop stop-color="#F4F7FE"/>
      <stop offset="1" stop-color="#FFFFFF"/>
    </linearGradient>
    <radialGradient id="autoHalo" cx="0" cy="0" r="1" gradientUnits="userSpaceOnUse" gradientTransform="translate(280 180) rotate(90) scale(160 230)">
      <stop offset="0" stop-color="#C7D2FE" stop-opacity="0.4"/>
      <stop offset="1" stop-color="#2563EB" stop-opacity="0"/>
    </radialGradient>
  </defs>
  <rect x="24" y="24" width="512" height="312" rx="32" fill="url(#autoBackground)"/>
  <rect x="24" y="24" width="512" height="312" rx="32" fill="url(#autoHalo)"/>
  <g opacity="0.12">
    <circle cx="160" cy="124" r="48" fill="#60A5FA"/>
    <circle cx="412" cy="240" r="60" fill="#1E40AF"/>
    <circle cx="340" cy="112" r="54" fill="#0EA5E9"/>
  </g>
  <g opacity="0.16">
    <path d="M134 92C134 87.0294 138.029 83 143 83H226C230.971 83 235 87.0294 235 92V146C235 150.971 230.971 155 226 155H143C138.029 155 134 150.971 134 146V92Z" fill="url(#autoNodes)"/>
  </g>
  <rect x="106" y="104" width="150" height="112" rx="22" fill="#FFFFFF" stroke="#E2E8F0" stroke-width="2"/>
  <rect x="304" y="80" width="150" height="112" rx="22" fill="#FFFFFF" stroke="#E2E8F0" stroke-width="2"/>
  <rect x="344" y="208" width="112" height="96" rx="22" fill="#FFFFFF" stroke="#E2E8F0" stroke-width="2"/>
  <rect x="164" y="224" width="156" height="80" rx="22" fill="#FFFFFF" stroke="#E2E8F0" stroke-width="2"/>
  <path d="M256 160L320 128" stroke="#2563EB" stroke-width="2.5" stroke-linecap="round" stroke-dasharray="10 8"/>
  <path d="M256 160L320 230" stroke="#2563EB" stroke-width="2.5" stroke-linecap="round" stroke-dasharray="10 8"/>
  <path d="M220 264H344" stroke="#2563EB" stroke-width="2.5" stroke-linecap="round" stroke-dasharray="10 8"/>
  <g opacity="0.85">
    <rect x="136" y="128" width="96" height="16" rx="8" fill="#2563EB" fill-opacity="0.12"/>
    <rect x="136" y="128" width="48" height="16" rx="8" fill="url(#autoNodes)"/>
    <rect x="136" y="152" width="76" height="12" rx="6" fill="#E2E8F0"/>
  </g>
  <g opacity="0.85">
    <rect x="334" y="104" width="96" height="16" rx="8" fill="#0EA5E9" fill-opacity="0.12"/>
    <rect x="334" y="104" width="58" height="16" rx="8" fill="url(#autoNodes)"/>
    <rect x="334" y="130" width="76" height="12" rx="6" fill="#E2E8F0"/>
  </g>
  <g opacity="0.85">
    <rect x="372" y="232" width="60" height="14" rx="7" fill="#EEF2FF"/>
    <rect x="372" y="258" width="90" height="12" rx="6" fill="#E2E8F0"/>
    <rect x="372" y="282" width="64" height="12" rx="6" fill="#F1F5F9"/>
  </g>
  <g opacity="0.85">
    <rect x="188" y="248" width="104" height="14" rx="7" fill="#F8FAFC"/>
    <rect x="188" y="272" width="76" height="12" rx="6" fill="#E2E8F0"/>
  </g>
  <circle cx="280" cy="202" r="18" fill="#1E3A8A" fill-opacity="0.12"/>
  <path d="M272.5 202L278 207.5L288 197" stroke="#2563EB" stroke-width="3" stroke-linecap="round" stroke-linejoin="round"/>
  <circle cx="280" cy="202" r="38" stroke="#BFDBFE" stroke-dasharray="6 10"/>
  <g opacity="0.6">
    <circle cx="106" cy="78" r="6" fill="#2563EB"/>
    <circle cx="456" cy="306" r="6" fill="#0EA5E9"/>
    <circle cx="472" cy="120" r="6" fill="#4338CA"/>
  </g>
</svg>
