<svg width="560" height="320" viewBox="0 0 560 320" fill="none" xmlns="http://www.w3.org/2000/svg">
  <defs>
    <linearGradient id="ctaGradient" x1="72" y1="72" x2="488" y2="248" gradientUnits="userSpaceOnUse">
      <stop stop-color="#2563EB"/>
      <stop offset="1" stop-color="#0EA5E9"/>
    </linearGradient>
    <linearGradient id="ctaRibbon" x1="120" y1="200" x2="440" y2="200" gradientUnits="userSpaceOnUse">
      <stop stop-color="#1E3A8A"/>
      <stop offset="1" stop-color="#4F46E5"/>
    </linearGradient>
  </defs>
  <rect x="20" y="32" width="520" height="256" rx="28" fill="#F1F5FF"/>
  <rect x="20" y="32" width="520" height="256" rx="28" fill="url(#ctaGradient)" fill-opacity="0.1"/>
  <path d="M120 180C180 160 240 160 300 178C360 196 420 196 480 180V248C480 259.046 471.046 268 460 268H140C128.954 268 120 259.046 120 248V180Z" fill="url(#ctaRibbon)"/>
  <rect x="120" y="112" width="320" height="128" rx="24" fill="#FFFFFF" stroke="#E2E8F0" stroke-width="2"/>
  <path d="M152 148H368" stroke="#E2E8F0" stroke-width="2" stroke-dasharray="10 12"/>
  <rect x="152" y="168" width="124" height="14" rx="7" fill="#E2E8F0"/>
  <rect x="152" y="188" width="156" height="12" rx="6" fill="#F1F5F9"/>
  <rect x="324" y="168" width="116" height="14" rx="7" fill="#EEF2FF"/>
  <circle cx="408" cy="140" r="18" fill="#2563EB" fill-opacity="0.12"/>
  <path d="M400 140H416" stroke="#2563EB" stroke-width="3" stroke-linecap="round"/>
  <path d="M408 132V148" stroke="#2563EB" stroke-width="3" stroke-linecap="round"/>
  <path d="M160 220C160 216.686 162.686 214 166 214H234C237.314 214 240 216.686 240 220V226C240 229.314 237.314 232 234 232H166C162.686 232 160 229.314 160 226V220Z" fill="#FFFFFF" stroke="#E2E8F0"/>
  <path d="M178 232H222" stroke="#2563EB" stroke-width="2" stroke-linecap="round"/>
  <path d="M268 222C268 218.686 270.686 216 274 216H366C369.314 216 372 218.686 372 222V228C372 231.314 369.314 234 366 234H274C270.686 234 268 231.314 268 228V222Z" fill="#2563EB"/>
  <path d="M288 228H352" stroke="#FFFFFF" stroke-width="3" stroke-linecap="round"/>
  <circle cx="120" cy="92" r="10" fill="#2563EB" fill-opacity="0.5"/>
  <circle cx="460" cy="92" r="10" fill="#0EA5E9" fill-opacity="0.5"/>
</svg>
