<svg width="560" height="360" viewBox="0 0 560 360" fill="none" xmlns="http://www.w3.org/2000/svg">
  <defs>
    <linearGradient id="exportGradient" x1="124" y1="74" x2="436" y2="286" gradientUnits="userSpaceOnUse">
      <stop stop-color="#2563EB"/>
      <stop offset="1" stop-color="#0EA5E9"/>
    </linearGradient>
    <radialGradient id="exportGlow" cx="0" cy="0" r="1" gradientUnits="userSpaceOnUse" gradientTransform="translate(280 180) rotate(90) scale(150 240)">
      <stop offset="0" stop-color="#DBEAFE" stop-opacity="0.5"/>
      <stop offset="1" stop-color="#DBEAFE" stop-opacity="0"/>
    </radialGradient>
  </defs>
  <rect x="28" y="24" width="504" height="312" rx="30" fill="#F7F9FF"/>
  <rect x="28" y="24" width="504" height="312" rx="30" fill="url(#exportGlow)"/>
  <rect x="108" y="92" width="156" height="204" rx="18" fill="#FFFFFF" stroke="#E2E8F0" stroke-width="2"/>
  <rect x="138" y="124" width="96" height="12" rx="6" fill="#2563EB" fill-opacity="0.14"/>
  <rect x="138" y="152" width="74" height="10" rx="5" fill="#E2E8F0"/>
  <rect x="138" y="186" width="80" height="10" rx="5" fill="#E2E8F0"/>
  <rect x="138" y="220" width="60" height="10" rx="5" fill="#E2E8F0"/>
  <rect x="138" y="256" width="96" height="12" rx="6" fill="#EEF2FF"/>
  <rect x="262" y="108" width="190" height="160" rx="22" fill="#FFFFFF" stroke="#E2E8F0" stroke-width="2"/>
  <rect x="292" y="140" width="130" height="16" rx="8" fill="#2563EB" fill-opacity="0.16"/>
  <rect x="292" y="170" width="80" height="12" rx="6" fill="#E2E8F0"/>
  <rect x="292" y="194" width="110" height="12" rx="6" fill="#E2E8F0"/>
  <rect x="292" y="218" width="68" height="12" rx="6" fill="#E2E8F0"/>
  <path d="M324 272C324 266.477 328.477 262 334 262H408C413.523 262 418 266.477 418 272V284C418 289.523 413.523 294 408 294H334C328.477 294 324 289.523 324 284V272Z" fill="#2563EB"/>
  <path d="M346 284H398" stroke="#FFFFFF" stroke-width="3" stroke-linecap="round" stroke-dasharray="8 6"/>
  <g opacity="0.8">
    <rect x="164" y="86" width="192" height="18" rx="9" fill="#1E3A8A"/>
    <path d="M188 95H332" stroke="#60A5FA" stroke-width="3" stroke-linecap="round" stroke-dasharray="12 10"/>
  </g>
  <path d="M208 292L292 156" stroke="url(#exportGradient)" stroke-width="4" stroke-linecap="round" stroke-dasharray="14 14"/>
  <circle cx="290" cy="158" r="12" fill="#FFFFFF" stroke="#2563EB" stroke-width="3"/>
  <circle cx="208" cy="292" r="8" fill="#2563EB"/>
  <path d="M340 214L380 174" stroke="#0EA5E9" stroke-width="3.5" stroke-linecap="round" stroke-dasharray="10 10"/>
  <g opacity="0.4">
    <circle cx="470" cy="114" r="12" fill="#93C5FD"/>
    <circle cx="108" cy="284" r="10" fill="#BFDBFE"/>
    <circle cx="470" cy="284" r="10" fill="#0EA5E9" fill-opacity="0.35"/>
  </g>
  <g opacity="0.9">
    <rect x="320" y="112" width="102" height="12" rx="6" fill="#F1F5F9"/>
    <rect x="320" y="128" width="82" height="10" rx="5" fill="#E2E8F0"/>
  </g>
  <path d="M262 194L216 238" stroke="#A5B4FC" stroke-width="3" stroke-linecap="round" stroke-dasharray="8 6"/>
  <path d="M320 240C320 236.686 322.686 234 326 234H348C351.314 234 354 236.686 354 240V246C354 249.314 351.314 252 348 252H326C322.686 252 320 249.314 320 246V240Z" fill="#FFFFFF" stroke="#2563EB"/>
  <path d="M332 246L338 252L348 240" stroke="#2563EB" stroke-width="2.5" stroke-linecap="round" stroke-linejoin="round"/>
</svg>
