<svg width="560" height="320" viewBox="0 0 560 320" fill="none" xmlns="http://www.w3.org/2000/svg">
  <defs>
    <linearGradient id="faqGradient" x1="120" y1="78" x2="440" y2="242" gradientUnits="userSpaceOnUse">
      <stop stop-color="#2563EB"/>
      <stop offset="1" stop-color="#0EA5E9"/>
    </linearGradient>
  </defs>
  <rect x="24" y="32" width="512" height="256" rx="28" fill="#F8FAFF"/>
  <circle cx="280" cy="160" r="112" stroke="#E2E8F0" stroke-width="2" stroke-dasharray="10 10"/>
  <circle cx="280" cy="160" r="76" stroke="url(#faqGradient)" stroke-width="3" stroke-dasharray="8 12"/>
  <circle cx="280" cy="160" r="46" fill="#FFFFFF" stroke="#E2E8F0"/>
  <path d="M270 150C270 140.611 277.611 133 287 133C296.389 133 304 140.611 304 150C304 157.028 299.864 163.116 293.728 166.181C289.917 168.095 286.8 171.166 285.805 175.079L285 178H295" stroke="#2563EB" stroke-width="4" stroke-linecap="round" stroke-linejoin="round"/>
  <circle cx="288" cy="192" r="6.5" fill="#2563EB"/>
  <circle cx="188" cy="202" r="20" fill="#FFFFFF" stroke="#E2E8F0"/>
  <path d="M180 200L188 208L200 196" stroke="#0EA5E9" stroke-width="3" stroke-linecap="round" stroke-linejoin="round"/>
  <circle cx="384" cy="118" r="18" fill="#FFFFFF" stroke="#E2E8F0"/>
  <path d="M376 118H392" stroke="#2563EB" stroke-width="3" stroke-linecap="round"/>
  <circle cx="180" cy="118" r="10" fill="#60A5FA" fill-opacity="0.45"/>
  <circle cx="412" cy="210" r="10" fill="#0EA5E9" fill-opacity="0.45"/>
  <rect x="140" y="244" width="280" height="12" rx="6" fill="#E2E8F0"/>
</svg>
