<svg width="560" height="360" viewBox="0 0 560 360" fill="none" xmlns="http://www.w3.org/2000/svg">
  <defs>
    <linearGradient id="goalGradient" x1="124" y1="78" x2="436" y2="286" gradientUnits="userSpaceOnUse">
      <stop offset="0" stop-color="#2563EB"/>
      <stop offset="1" stop-color="#0EA5E9"/>
    </linearGradient>
    <radialGradient id="goalGlow" cx="0" cy="0" r="1" gradientUnits="userSpaceOnUse" gradientTransform="translate(280 180) rotate(90) scale(150 240)">
      <stop offset="0" stop-color="#E0F2FE" stop-opacity="0.55"/>
      <stop offset="1" stop-color="#E0F2FE" stop-opacity="0"/>
    </radialGradient>
    <linearGradient id="goalBackground" x1="280" y1="32" x2="280" y2="328" gradientUnits="userSpaceOnUse">
      <stop stop-color="#F9FAFF"/>
      <stop offset="1" stop-color="#FFFFFF"/>
    </linearGradient>
  </defs>
  <rect x="28" y="28" width="504" height="304" rx="32" fill="url(#goalBackground)"/>
  <rect x="28" y="28" width="504" height="304" rx="32" fill="url(#goalGlow)"/>
  <g opacity="0.18">
    <path d="M158 94C158 89.0294 162.029 85 167 85H246C250.971 85 255 89.0294 255 94V160C255 164.971 250.971 169 246 169H167C162.029 169 158 164.971 158 160V94Z" fill="#2563EB"/>
  </g>
  <path d="M138 112C138 101.611 146.611 93 157 93H403C413.389 93 422 101.611 422 112V252C422 262.389 413.389 271 403 271H157C146.611 271 138 262.389 138 252V112Z" fill="#FFFFFF" stroke="#E2E8F0" stroke-width="2"/>
  <rect x="176" y="132" width="68" height="120" rx="14" fill="#EEF2FF"/>
  <rect x="176" y="210" width="68" height="42" rx="14" fill="url(#goalGradient)"/>
  <rect x="262" y="132" width="82" height="120" rx="14" fill="#F1F5F9"/>
  <rect x="262" y="188" width="82" height="64" rx="14" fill="url(#goalGradient)" fill-opacity="0.85"/>
  <rect x="360" y="132" width="54" height="120" rx="14" fill="#F8FAFC"/>
  <rect x="360" y="164" width="54" height="88" rx="14" fill="url(#goalGradient)" fill-opacity="0.65"/>
  <path d="M180 248H410" stroke="#E2E8F0" stroke-width="2" stroke-linecap="round"/>
  <path d="M156 204C210 176 242 180 276 190C310 200 342 222 398 208" stroke="url(#goalGradient)" stroke-width="5" stroke-linecap="round" stroke-dasharray="14 14"/>
  <circle cx="178" cy="206" r="10" fill="#FFFFFF" stroke="#2563EB" stroke-width="3"/>
  <circle cx="274" cy="196" r="10" fill="#FFFFFF" stroke="#2563EB" stroke-width="3"/>
  <circle cx="350" cy="210" r="10" fill="#FFFFFF" stroke="#2563EB" stroke-width="3"/>
  <circle cx="396" cy="208" r="10" fill="#FFFFFF" stroke="#2563EB" stroke-width="3"/>
  <g opacity="0.8">
    <rect x="170" y="280" width="72" height="12" rx="6" fill="#E2E8F0"/>
    <rect x="260" y="280" width="94" height="12" rx="6" fill="#E2E8F0"/>
    <rect x="372" y="280" width="64" height="12" rx="6" fill="#E2E8F0"/>
  </g>
  <g opacity="0.9">
    <path d="M128 220C128 217.239 130.239 215 133 215H157C159.761 215 162 217.239 162 220V244C162 246.761 159.761 249 157 249H133C130.239 249 128 246.761 128 244V220Z" fill="#FFFFFF" stroke="#E2E8F0"/>
    <path d="M137 234L144.5 241.5L155 228" stroke="#2563EB" stroke-width="3" stroke-linecap="round" stroke-linejoin="round"/>
  </g>
  <g opacity="0.4">
    <circle cx="448" cy="94" r="18" fill="#BFDBFE"/>
    <circle cx="112" cy="248" r="10" fill="#DBEAFE"/>
    <circle cx="456" cy="266" r="10" fill="#DBEAFE"/>
  </g>
  <path d="M282 74H318C322.971 74 327 78.0294 327 83V109C327 113.971 322.971 118 318 118H282C277.029 118 273 113.971 273 109V83C273 78.0294 277.029 74 282 74Z" fill="#1E3A8A"/>
  <path d="M288 94H312" stroke="#60A5FA" stroke-width="3" stroke-linecap="round"/>
</svg>
