<svg width="640" height="420" viewBox="0 0 640 420" fill="none" xmlns="http://www.w3.org/2000/svg">
  <defs>
    <linearGradient id="heroGradient" x1="72" y1="58" x2="568" y2="362" gradientUnits="userSpaceOnUse">
      <stop offset="0" stop-color="#2563EB"/>
      <stop offset="1" stop-color="#0EA5E9"/>
    </linearGradient>
    <linearGradient id="heroGlow" x1="320" y1="40" x2="320" y2="380" gradientUnits="userSpaceOnUse">
      <stop offset="0" stop-color="#93C5FD" stop-opacity="0.35"/>
      <stop offset="1" stop-color="#0EA5E9" stop-opacity="0"/>
    </linearGradient>
    <filter id="heroBlur" x="-40" y="-40" width="720" height="500" filterUnits="userSpaceOnUse" color-interpolation-filters="sRGB">
      <feGaussianBlur stdDeviation="40" result="blur"/>
    </filter>
    <radialGradient id="heroNodes" cx="0" cy="0" r="1" gradientUnits="userSpaceOnUse" gradientTransform="translate(320 210) rotate(90) scale(210 260)">
      <stop offset="0" stop-color="#2563EB" stop-opacity="0.42"/>
      <stop offset="1" stop-color="#2563EB" stop-opacity="0"/>
    </radialGradient>
  </defs>
  <rect x="24" y="24" width="592" height="372" rx="42" fill="#F8FAFF"/>
  <rect x="24" y="24" width="592" height="372" rx="42" fill="url(#heroGlow)"/>
  <g filter="url(#heroBlur)" opacity="0.4">
    <ellipse cx="178" cy="130" rx="88" ry="48" fill="#BFDBFE"/>
    <ellipse cx="470" cy="302" rx="112" ry="52" fill="#C7D2FE"/>
    <ellipse cx="418" cy="152" rx="96" ry="42" fill="#A5F3FC"/>
  </g>
  <circle cx="320" cy="210" r="200" fill="url(#heroNodes)"/>
  <rect x="128" y="120" width="384" height="200" rx="26" fill="#FFFFFF" stroke="#E2E8F0" stroke-width="2"/>
  <rect x="168" y="162" width="112" height="72" rx="16" fill="#EEF2FF"/>
  <rect x="168" y="162" width="112" height="28" rx="12" fill="url(#heroGradient)"/>
  <rect x="300" y="162" width="172" height="28" rx="12" fill="#F1F5F9"/>
  <rect x="300" y="204" width="172" height="28" rx="12" fill="#F8FAFC"/>
  <rect x="168" y="256" width="304" height="28" rx="12" fill="#F1F5F9"/>
  <rect x="168" y="300" width="172" height="28" rx="12" fill="#EEF2FF"/>
  <g opacity="0.85">
    <circle cx="210" cy="238" r="12" fill="#2563EB" fill-opacity="0.12"/>
    <path d="M205.5 238.5L208.5 241.5L214.5 235.5" stroke="#2563EB" stroke-width="2.5" stroke-linecap="round" stroke-linejoin="round"/>
  </g>
  <g opacity="0.9">
    <rect x="352" y="104" width="160" height="36" rx="18" fill="#FFFFFF" stroke="#E2E8F0"/>
    <path d="M372 122H474" stroke="#CBD5F5" stroke-width="2" stroke-linecap="round" stroke-dasharray="6 6"/>
  </g>
  <g opacity="0.8">
    <circle cx="156" cy="164" r="22" fill="#F1F5F9" stroke="#E2E8F0"/>
    <path d="M147 166.5L153.5 173L165 160.5" stroke="#2563EB" stroke-width="3" stroke-linecap="round" stroke-linejoin="round"/>
  </g>
  <g opacity="0.8">
    <circle cx="500" cy="314" r="22" fill="#F1F5F9" stroke="#E2E8F0"/>
    <path d="M492 312H500V304M508 312L500 320L492 312" stroke="#0EA5E9" stroke-width="2.5" stroke-linecap="round" stroke-linejoin="round"/>
  </g>
  <g opacity="0.7">
    <rect x="208" y="84" width="120" height="40" rx="20" fill="#1E3A8A"/>
    <path d="M228 104H332" stroke="#60A5FA" stroke-width="3" stroke-linecap="round" stroke-dasharray="12 12"/>
  </g>
</svg>
