<svg width="560" height="360" viewBox="0 0 560 360" fill="none" xmlns="http://www.w3.org/2000/svg">
  <defs>
    <linearGradient id="pricingRing" x1="180" y1="82" x2="380" y2="278" gradientUnits="userSpaceOnUse">
      <stop stop-color="#2563EB"/>
      <stop offset="1" stop-color="#0EA5E9"/>
    </linearGradient>
  </defs>
  <rect x="24" y="32" width="512" height="296" rx="28" fill="#F8FAFF"/>
  <g opacity="0.14">
    <circle cx="180" cy="140" r="60" fill="#1E3A8A"/>
    <circle cx="380" cy="220" r="76" fill="#0EA5E9"/>
  </g>
  <circle cx="280" cy="190" r="124" stroke="#E2E8F0" stroke-width="2" stroke-dasharray="12 16"/>
  <circle cx="280" cy="190" r="90" stroke="url(#pricingRing)" stroke-width="7" stroke-dasharray="20 18"/>
  <circle cx="280" cy="190" r="52" fill="#FFFFFF" stroke="#E2E8F0" stroke-width="2"/>
  <path d="M280 154C299.882 154 316 170.118 316 190C316 209.882 299.882 226 280 226C260.118 226 244 209.882 244 190C244 170.118 260.118 154 280 154Z" fill="#FFFFFF"/>
  <path d="M280 160C296.569 160 310 173.431 310 190C310 206.569 296.569 220 280 220C263.431 220 250 206.569 250 190C250 173.431 263.431 160 280 160Z" stroke="#2563EB" stroke-width="3" stroke-dasharray="10 10"/>
  <path d="M280 170C291.046 170 300 178.954 300 190C300 201.046 291.046 210 280 210C268.954 210 260 201.046 260 190C260 178.954 268.954 170 280 170Z" fill="#2563EB" fill-opacity="0.18"/>
  <path d="M274 188V190C274 192.209 275.791 194 278 194H286C288.209 194 290 195.791 290 198V198C290 200.209 288.209 202 286 202H280" stroke="#2563EB" stroke-width="3" stroke-linecap="round"/>
  <path d="M280 170V176" stroke="#2563EB" stroke-width="3" stroke-linecap="round"/>
  <path d="M280 204V210" stroke="#2563EB" stroke-width="3" stroke-linecap="round"/>
  <path d="M250 190H256" stroke="#2563EB" stroke-width="3" stroke-linecap="round"/>
  <path d="M304 190H310" stroke="#2563EB" stroke-width="3" stroke-linecap="round"/>
  <rect x="144" y="118" width="72" height="28" rx="14" fill="#FFFFFF" stroke="#E2E8F0"/>
  <rect x="344" y="234" width="96" height="32" rx="16" fill="#FFFFFF" stroke="#E2E8F0"/>
  <rect x="208" y="258" width="144" height="28" rx="14" fill="#FFFFFF" stroke="#E2E8F0"/>
  <circle cx="120" cy="260" r="10" fill="#2563EB" fill-opacity="0.4"/>
  <circle cx="440" cy="100" r="10" fill="#0EA5E9" fill-opacity="0.4"/>
</svg>
