<svg width="560" height="320" viewBox="0 0 560 320" fill="none" xmlns="http://www.w3.org/2000/svg">
  <defs>
    <linearGradient id="stepsGradient" x1="120" y1="60" x2="440" y2="260" gradientUnits="userSpaceOnUse">
      <stop stop-color="#2563EB"/>
      <stop offset="1" stop-color="#0EA5E9"/>
    </linearGradient>
  </defs>
  <rect x="24" y="24" width="512" height="272" rx="28" fill="#F9FAFF"/>
  <path d="M120 220C170 180 210 168 260 180C310 192 350 232 420 196" stroke="url(#stepsGradient)" stroke-width="6" stroke-linecap="round" stroke-dasharray="14 16"/>
  <g>
    <circle cx="140" cy="224" r="36" fill="#FFFFFF" stroke="#E2E8F0" stroke-width="2"/>
    <path d="M140 210V224L148 232" stroke="#2563EB" stroke-width="3.5" stroke-linecap="round" stroke-linejoin="round"/>
    <circle cx="140" cy="224" r="20" stroke="#2563EB" stroke-opacity="0.4" stroke-width="3" stroke-dasharray="6 8"/>
  </g>
  <g>
    <circle cx="264" cy="178" r="36" fill="#FFFFFF" stroke="#E2E8F0" stroke-width="2"/>
    <path d="M252 178H276" stroke="#0EA5E9" stroke-width="3.5" stroke-linecap="round"/>
    <path d="M264 166V190" stroke="#0EA5E9" stroke-width="3.5" stroke-linecap="round"/>
  </g>
  <g>
    <circle cx="384" cy="204" r="36" fill="#FFFFFF" stroke="#E2E8F0" stroke-width="2"/>
    <path d="M372 204H396" stroke="#2563EB" stroke-width="3" stroke-linecap="round"/>
    <path d="M384 216L395 204L384 192" stroke="#2563EB" stroke-width="3" stroke-linecap="round" stroke-linejoin="round"/>
  </g>
  <g opacity="0.25">
    <circle cx="190" cy="108" r="36" fill="#60A5FA" fill-opacity="0.35"/>
    <circle cx="360" cy="108" r="40" fill="#0EA5E9" fill-opacity="0.25"/>
  </g>
  <rect x="116" y="92" width="120" height="56" rx="16" fill="#FFFFFF" stroke="#E2E8F0"/>
  <rect x="116" y="92" width="120" height="24" rx="12" fill="url(#stepsGradient)" fill-opacity="0.85"/>
  <rect x="320" y="92" width="120" height="56" rx="16" fill="#FFFFFF" stroke="#E2E8F0"/>
  <rect x="320" y="92" width="72" height="24" rx="12" fill="#EFF6FF"/>
  <circle cx="116" cy="260" r="8" fill="#2563EB" fill-opacity="0.45"/>
  <circle cx="440" cy="260" r="8" fill="#0EA5E9" fill-opacity="0.45"/>
</svg>
