<svg width="560" height="360" viewBox="0 0 560 360" fill="none" xmlns="http://www.w3.org/2000/svg">
  <defs>
    <linearGradient id="suiteGradient" x1="120" y1="76" x2="440" y2="284" gradientUnits="userSpaceOnUse">
      <stop stop-color="#2563EB"/>
      <stop offset="1" stop-color="#0EA5E9"/>
    </linearGradient>
    <linearGradient id="suiteBackground" x1="280" y1="32" x2="280" y2="328" gradientUnits="userSpaceOnUse">
      <stop stop-color="#F9FAFF"/>
      <stop offset="1" stop-color="#FFFFFF"/>
    </linearGradient>
  </defs>
  <rect x="32" y="28" width="496" height="304" rx="30" fill="url(#suiteBackground)"/>
  <g opacity="0.12">
    <circle cx="180" cy="112" r="60" fill="#2563EB"/>
    <circle cx="380" cy="244" r="70" fill="#0EA5E9"/>
    <circle cx="310" cy="120" r="58" fill="#93C5FD"/>
  </g>
  <rect x="120" y="96" width="320" height="192" rx="28" fill="#FFFFFF" stroke="#E2E8F0" stroke-width="2"/>
  <path d="M120 192H440" stroke="#E2E8F0" stroke-width="2"/>
  <path d="M232 96V288" stroke="#E2E8F0" stroke-width="2"/>
  <path d="M328 96V288" stroke="#E2E8F0" stroke-width="2"/>
  <g opacity="0.9">
    <rect x="148" y="120" width="64" height="48" rx="14" fill="#EEF2FF"/>
    <rect x="252" y="120" width="64" height="48" rx="14" fill="#E0F2FE"/>
    <rect x="348" y="120" width="64" height="48" rx="14" fill="#E8EDFF"/>
  </g>
  <g opacity="0.85">
    <rect x="148" y="208" width="64" height="48" rx="14" fill="#FFFFFF" stroke="#E2E8F0"/>
    <rect x="160" y="222" width="40" height="12" rx="6" fill="url(#suiteGradient)"/>
    <rect x="252" y="208" width="64" height="48" rx="14" fill="#FFFFFF" stroke="#E2E8F0"/>
    <rect x="264" y="222" width="32" height="12" rx="6" fill="#E2E8F0"/>
    <rect x="348" y="208" width="64" height="48" rx="14" fill="#FFFFFF" stroke="#E2E8F0"/>
    <rect x="360" y="222" width="32" height="12" rx="6" fill="#E2E8F0"/>
  </g>
  <g opacity="0.75">
    <path d="M200 152C209.389 152 217 144.389 217 135C217 125.611 209.389 118 200 118C190.611 118 183 125.611 183 135C183 144.389 190.611 152 200 152Z" fill="#FFFFFF" stroke="#2563EB" stroke-width="3"/>
    <path d="M192 136.5L198.5 143L208 132" stroke="#2563EB" stroke-width="3" stroke-linecap="round" stroke-linejoin="round"/>
  </g>
  <g opacity="0.75">
    <circle cx="304" cy="136" r="17" fill="#FFFFFF" stroke="#0EA5E9" stroke-width="3"/>
    <path d="M297 135H305V127M313 135L305 143L297 135" stroke="#0EA5E9" stroke-width="2.5" stroke-linecap="round" stroke-linejoin="round"/>
  </g>
  <g opacity="0.75">
    <rect x="352" y="130" width="56" height="12" rx="6" fill="#DBEAFE"/>
    <rect x="352" y="230" width="56" height="12" rx="6" fill="#DBEAFE"/>
  </g>
  <circle cx="120" cy="80" r="10" fill="#2563EB" fill-opacity="0.6"/>
  <circle cx="440" cy="80" r="10" fill="#0EA5E9" fill-opacity="0.6"/>
  <circle cx="440" cy="312" r="10" fill="#2563EB" fill-opacity="0.4"/>
  <circle cx="120" cy="312" r="10" fill="#0EA5E9" fill-opacity="0.4"/>
</svg>
