<svg width="512" height="512" viewBox="0 0 512 512" xmlns="http://www.w3.org/2000/svg" role="img" aria-label="Budget Pro Logo">
  <defs>
    <linearGradient id="walletGradient" x1="0%" y1="0%" x2="100%" y2="100%">
      <stop offset="0%" stop-color="#6D5BFF"/>
      <stop offset="100%" stop-color="#F064C7"/>
    </linearGradient>
    <linearGradient id="strapGradient" x1="0%" y1="0%" x2="100%" y2="0%">
      <stop offset="0%" stop-color="#FFFFFF" stop-opacity="0.92"/>
      <stop offset="100%" stop-color="#F7F7F7"/>
    </linearGradient>
  </defs>
  <rect x="44" y="92" width="356" height="328" rx="56" fill="url(#walletGradient)"/>
  <path d="M412 196h42c24 0 44 20 44 44v36c0 24-20 44-44 44h-42v-18c0-24-20-44-44-44h-26v-40h26c24 0 44-20 44-44v-18z" fill="url(#walletGradient)"/>
  <rect x="404" y="224" width="52" height="40" rx="12" fill="url(#strapGradient)"/>
  <circle cx="430" cy="244" r="10" fill="url(#walletGradient)"/>
  <path d="M134 312l64-70 54 54 82-106 56 44" fill="none" stroke="#FFFFFF" stroke-width="28" stroke-linecap="round" stroke-linejoin="round"/>
  <path d="M330 174h54l-6-6m6 6l-6 6" stroke="#FFFFFF" stroke-width="28" stroke-linecap="round" stroke-linejoin="round"/>
</svg>
