<svg width="640" height="200" viewBox="0 0 640 200" xmlns="http://www.w3.org/2000/svg" role="img" aria-label="Budget Pro Logo">
  <defs>
    <linearGradient id="walletGradientFull" x1="0%" y1="0%" x2="100%" y2="100%">
      <stop offset="0%" stop-color="#6D5BFF"/>
      <stop offset="100%" stop-color="#F064C7"/>
    </linearGradient>
    <linearGradient id="strapGradientFull" x1="0%" y1="0%" x2="100%" y2="0%">
      <stop offset="0%" stop-color="#FFFFFF" stop-opacity="0.92"/>
      <stop offset="100%" stop-color="#F7F7F7"/>
    </linearGradient>
  </defs>
  <rect x="12" y="20" width="210" height="160" rx="32" fill="url(#walletGradientFull)"/>
  <path d="M222 60h42c22 0 40 18 40 40v24c0 22-18 40-40 40h-42v-16c0-22-18-40-40-40h-24V88h24c22 0 40-18 40-40V60z" fill="url(#walletGradientFull)"/>
  <rect x="214" y="88" width="66" height="42" rx="12" fill="url(#strapGradientFull)"/>
  <circle cx="248" cy="108" r="8" fill="url(#walletGradientFull)"/>
  <path d="M86 132l50-56 42 42 64-82 44 36" fill="none" stroke="#FFFFFF" stroke-width="18" stroke-linecap="round" stroke-linejoin="round"/>
  <path d="M210 62h46l-5-5m5 5l-5 5" stroke="#FFFFFF" stroke-width="18" stroke-linecap="round" stroke-linejoin="round"/>
  <g transform="translate(260, 40)">
    <text x="0" y="52" fill="#111827" font-family="Inter, 'Helvetica Neue', Arial" font-size="44" font-weight="800" letter-spacing="-0.5">Budget Pro</text>
    <text x="0" y="92" fill="#4B5563" font-family="Inter, 'Helvetica Neue', Arial" font-size="18" font-weight="600">Votre argent sous contrôle</text>
  </g>
</svg>
